<svg width="274" height="22" viewBox="0 0 274 22" fill="none" xmlns="http://www.w3.org/2000/svg">
<path d="M9 2.04V4.3H3.18V7.88H7.64V10.1H3.18V16H0.38V2.04H9ZM12.4055 3.6C11.9121 3.6 11.4988 3.44667 11.1655 3.14C10.8455 2.82 10.6855 2.42667 10.6855 1.96C10.6855 1.49333 10.8455 1.10667 11.1655 0.799999C11.4988 0.479999 11.9121 0.319999 12.4055 0.319999C12.8988 0.319999 13.3055 0.479999 13.6255 0.799999C13.9588 1.10667 14.1255 1.49333 14.1255 1.96C14.1255 2.42667 13.9588 2.82 13.6255 3.14C13.3055 3.44667 12.8988 3.6 12.4055 3.6ZM13.7855 4.92V16H10.9855V4.92H13.7855ZM22.6919 4.76C24.0119 4.76 25.0785 5.18 25.8919 6.02C26.7052 6.84667 27.1119 8.00667 27.1119 9.5V16H24.3119V9.88C24.3119 9 24.0919 8.32667 23.6519 7.86C23.2119 7.38 22.6119 7.14 21.8519 7.14C21.0785 7.14 20.4652 7.38 20.0119 7.86C19.5719 8.32667 19.3519 9 19.3519 9.88V16H16.5519V4.92H19.3519V6.3C19.7252 5.82 20.1985 5.44667 20.7719 5.18C21.3585 4.9 21.9985 4.76 22.6919 4.76ZM39.2745 2.04V4.3H35.5545V16H32.7545V4.3H29.0345V2.04H39.2745ZM51.6175 10.22C51.6175 10.62 51.5908 10.98 51.5375 11.3H43.4375C43.5042 12.1 43.7842 12.7267 44.2775 13.18C44.7708 13.6333 45.3775 13.86 46.0975 13.86C47.1375 13.86 47.8775 13.4133 48.3175 12.52H51.3375C51.0175 13.5867 50.4042 14.4667 49.4975 15.16C48.5908 15.84 47.4775 16.18 46.1575 16.18C45.0908 16.18 44.1308 15.9467 43.2775 15.48C42.4375 15 41.7775 14.3267 41.2975 13.46C40.8308 12.5933 40.5975 11.5933 40.5975 10.46C40.5975 9.31333 40.8308 8.30667 41.2975 7.44C41.7642 6.57333 42.4175 5.90667 43.2575 5.44C44.0975 4.97333 45.0642 4.74 46.1575 4.74C47.2108 4.74 48.1508 4.96667 48.9775 5.42C49.8175 5.87333 50.4642 6.52 50.9175 7.36C51.3842 8.18667 51.6175 9.14 51.6175 10.22ZM48.7175 9.42C48.7042 8.7 48.4442 8.12667 47.9375 7.7C47.4308 7.26 46.8108 7.04 46.0775 7.04C45.3842 7.04 44.7975 7.25333 44.3175 7.68C43.8508 8.09333 43.5642 8.67333 43.4575 9.42H48.7175ZM52.9412 10.46C52.9412 9.31333 53.1746 8.31333 53.6413 7.46C54.1079 6.59333 54.7546 5.92667 55.5813 5.46C56.4079 4.98 57.3546 4.74 58.4213 4.74C59.7946 4.74 60.9279 5.08667 61.8213 5.78C62.7279 6.46 63.3346 7.42 63.6413 8.66H60.6213C60.4613 8.18 60.1879 7.80667 59.8013 7.54C59.4279 7.26 58.9613 7.12 58.4013 7.12C57.6013 7.12 56.9679 7.41333 56.5013 8C56.0346 8.57333 55.8013 9.39333 55.8013 10.46C55.8013 11.5133 56.0346 12.3333 56.5013 12.92C56.9679 13.4933 57.6013 13.78 58.4013 13.78C59.5346 13.78 60.2746 13.2733 60.6213 12.26H63.6413C63.3346 13.46 62.7279 14.4133 61.8213 15.12C60.9146 15.8267 59.7813 16.18 58.4213 16.18C57.3546 16.18 56.4079 15.9467 55.5813 15.48C54.7546 15 54.1079 14.3333 53.6413 13.48C53.1746 12.6133 52.9412 11.6067 52.9412 10.46ZM71.9325 4.76C72.7725 4.76 73.5192 4.94667 74.1725 5.32C74.8258 5.68 75.3325 6.22 75.6925 6.94C76.0658 7.64667 76.2525 8.5 76.2525 9.5V16H73.4525V9.88C73.4525 9 73.2325 8.32667 72.7925 7.86C72.3525 7.38 71.7525 7.14 70.9925 7.14C70.2192 7.14 69.6058 7.38 69.1525 7.86C68.7125 8.32667 68.4925 9 68.4925 9.88V16H65.6925V1.2H68.4925V6.3C68.8525 5.82 69.3325 5.44667 69.9325 5.18C70.5325 4.9 71.1992 4.76 71.9325 4.76ZM92.2408 13.34H86.6808L85.7608 16H82.8208L87.8408 2.02H91.1008L96.1208 16H93.1608L92.2408 13.34ZM91.4808 11.1L89.4608 5.26L87.4408 11.1H91.4808ZM97.2772 10.42C97.2772 9.3 97.4972 8.30667 97.9372 7.44C98.3905 6.57333 99.0039 5.90667 99.7772 5.44C100.551 4.97333 101.411 4.74 102.357 4.74C103.077 4.74 103.764 4.9 104.417 5.22C105.071 5.52667 105.591 5.94 105.977 6.46V1.2H108.817V16H105.977V14.36C105.631 14.9067 105.144 15.3467 104.517 15.68C103.891 16.0133 103.164 16.18 102.337 16.18C101.404 16.18 100.551 15.94 99.7772 15.46C99.0039 14.98 98.3905 14.3067 97.9372 13.44C97.4972 12.56 97.2772 11.5533 97.2772 10.42ZM105.997 10.46C105.997 9.78 105.864 9.2 105.597 8.72C105.331 8.22667 104.971 7.85333 104.517 7.6C104.064 7.33333 103.577 7.2 103.057 7.2C102.537 7.2 102.057 7.32667 101.617 7.58C101.177 7.83333 100.817 8.20667 100.537 8.7C100.271 9.18 100.137 9.75333 100.137 10.42C100.137 11.0867 100.271 11.6733 100.537 12.18C100.817 12.6733 101.177 13.0533 101.617 13.32C102.071 13.5867 102.551 13.72 103.057 13.72C103.577 13.72 104.064 13.5933 104.517 13.34C104.971 13.0733 105.331 12.7 105.597 12.22C105.864 11.7267 105.997 11.14 105.997 10.46ZM116.172 13.42L118.972 4.92H121.952L117.852 16H114.452L110.372 4.92H113.372L116.172 13.42ZM128.445 16.18C127.378 16.18 126.418 15.9467 125.565 15.48C124.711 15 124.038 14.3267 123.545 13.46C123.065 12.5933 122.825 11.5933 122.825 10.46C122.825 9.32667 123.071 8.32667 123.565 7.46C124.071 6.59333 124.758 5.92667 125.625 5.46C126.491 4.98 127.458 4.74 128.525 4.74C129.591 4.74 130.558 4.98 131.425 5.46C132.291 5.92667 132.971 6.59333 133.465 7.46C133.971 8.32667 134.225 9.32667 134.225 10.46C134.225 11.5933 133.965 12.5933 133.445 13.46C132.938 14.3267 132.245 15 131.365 15.48C130.498 15.9467 129.525 16.18 128.445 16.18ZM128.445 13.74C128.951 13.74 129.425 13.62 129.865 13.38C130.318 13.1267 130.678 12.7533 130.945 12.26C131.211 11.7667 131.345 11.1667 131.345 10.46C131.345 9.40667 131.065 8.6 130.505 8.04C129.958 7.46667 129.285 7.18 128.485 7.18C127.685 7.18 127.011 7.46667 126.465 8.04C125.931 8.6 125.665 9.40667 125.665 10.46C125.665 11.5133 125.925 12.3267 126.445 12.9C126.978 13.46 127.645 13.74 128.445 13.74ZM135.558 10.46C135.558 9.31333 135.792 8.31333 136.258 7.46C136.725 6.59333 137.372 5.92667 138.198 5.46C139.025 4.98 139.972 4.74 141.038 4.74C142.412 4.74 143.545 5.08667 144.438 5.78C145.345 6.46 145.952 7.42 146.258 8.66H143.238C143.078 8.18 142.805 7.80667 142.418 7.54C142.045 7.26 141.578 7.12 141.018 7.12C140.218 7.12 139.585 7.41333 139.118 8C138.652 8.57333 138.418 9.39333 138.418 10.46C138.418 11.5133 138.652 12.3333 139.118 12.92C139.585 13.4933 140.218 13.78 141.018 13.78C142.152 13.78 142.892 13.2733 143.238 12.26H146.258C145.952 13.46 145.345 14.4133 144.438 15.12C143.532 15.8267 142.398 16.18 141.038 16.18C139.972 16.18 139.025 15.9467 138.198 15.48C137.372 15 136.725 14.3333 136.258 13.48C135.792 12.6133 135.558 11.6067 135.558 10.46ZM147.59 10.42C147.59 9.3 147.81 8.30667 148.25 7.44C148.703 6.57333 149.31 5.90667 150.07 5.44C150.843 4.97333 151.703 4.74 152.65 4.74C153.476 4.74 154.196 4.90667 154.81 5.24C155.436 5.57333 155.936 5.99333 156.31 6.5V4.92H159.13V16H156.31V14.38C155.95 14.9 155.45 15.3333 154.81 15.68C154.183 16.0133 153.456 16.18 152.63 16.18C151.696 16.18 150.843 15.94 150.07 15.46C149.31 14.98 148.703 14.3067 148.25 13.44C147.81 12.56 147.59 11.5533 147.59 10.42ZM156.31 10.46C156.31 9.78 156.176 9.2 155.91 8.72C155.643 8.22667 155.283 7.85333 154.83 7.6C154.376 7.33333 153.89 7.2 153.37 7.2C152.85 7.2 152.37 7.32667 151.93 7.58C151.49 7.83333 151.13 8.20667 150.85 8.7C150.583 9.18 150.45 9.75333 150.45 10.42C150.45 11.0867 150.583 11.6733 150.85 12.18C151.13 12.6733 151.49 13.0533 151.93 13.32C152.383 13.5867 152.863 13.72 153.37 13.72C153.89 13.72 154.376 13.5933 154.83 13.34C155.283 13.0733 155.643 12.7 155.91 12.22C156.176 11.7267 156.31 11.14 156.31 10.46ZM161.144 10.46C161.144 9.31333 161.378 8.31333 161.844 7.46C162.311 6.59333 162.958 5.92667 163.784 5.46C164.611 4.98 165.558 4.74 166.624 4.74C167.998 4.74 169.131 5.08667 170.024 5.78C170.931 6.46 171.538 7.42 171.844 8.66H168.824C168.664 8.18 168.391 7.80667 168.004 7.54C167.631 7.26 167.164 7.12 166.604 7.12C165.804 7.12 165.171 7.41333 164.704 8C164.238 8.57333 164.004 9.39333 164.004 10.46C164.004 11.5133 164.238 12.3333 164.704 12.92C165.171 13.4933 165.804 13.78 166.604 13.78C167.738 13.78 168.478 13.2733 168.824 12.26H171.844C171.538 13.46 170.931 14.4133 170.024 15.12C169.118 15.8267 167.984 16.18 166.624 16.18C165.558 16.18 164.611 15.9467 163.784 15.48C162.958 15 162.311 14.3333 161.844 13.48C161.378 12.6133 161.144 11.6067 161.144 10.46ZM184.496 4.92L177.636 21.24H174.656L177.056 15.72L172.616 4.92H175.756L178.616 12.66L181.516 4.92H184.496ZM202.711 16H199.911L193.571 6.42V16H190.771V2.02H193.571L199.911 11.62V2.02H202.711V16ZM215.778 10.22C215.778 10.62 215.751 10.98 215.698 11.3H207.598C207.664 12.1 207.944 12.7267 208.438 13.18C208.931 13.6333 209.538 13.86 210.258 13.86C211.298 13.86 212.038 13.4133 212.478 12.52H215.498C215.178 13.5867 214.564 14.4667 213.658 15.16C212.751 15.84 211.638 16.18 210.318 16.18C209.251 16.18 208.291 15.9467 207.438 15.48C206.598 15 205.938 14.3267 205.458 13.46C204.991 12.5933 204.758 11.5933 204.758 10.46C204.758 9.31333 204.991 8.30667 205.458 7.44C205.924 6.57333 206.578 5.90667 207.418 5.44C208.258 4.97333 209.224 4.74 210.318 4.74C211.371 4.74 212.311 4.96667 213.138 5.42C213.978 5.87333 214.624 6.52 215.078 7.36C215.544 8.18667 215.778 9.14 215.778 10.22ZM212.878 9.42C212.864 8.7 212.604 8.12667 212.098 7.7C211.591 7.26 210.971 7.04 210.238 7.04C209.544 7.04 208.958 7.25333 208.478 7.68C208.011 8.09333 207.724 8.67333 207.618 9.42H212.878ZM221.081 7.22V12.58C221.081 12.9533 221.168 13.2267 221.341 13.4C221.528 13.56 221.835 13.64 222.261 13.64H223.561V16H221.801C219.441 16 218.261 14.8533 218.261 12.56V7.22H216.941V4.92H218.261V2.18H221.081V4.92H223.561V7.22H221.081ZM240.935 4.92L237.695 16H234.675L232.655 8.26L230.635 16H227.595L224.335 4.92H227.175L229.135 13.36L231.255 4.92H234.215L236.295 13.34L238.255 4.92H240.935ZM247.37 16.18C246.304 16.18 245.344 15.9467 244.49 15.48C243.637 15 242.964 14.3267 242.47 13.46C241.99 12.5933 241.75 11.5933 241.75 10.46C241.75 9.32667 241.997 8.32667 242.49 7.46C242.997 6.59333 243.684 5.92667 244.55 5.46C245.417 4.98 246.384 4.74 247.45 4.74C248.517 4.74 249.484 4.98 250.35 5.46C251.217 5.92667 251.897 6.59333 252.39 7.46C252.897 8.32667 253.15 9.32667 253.15 10.46C253.15 11.5933 252.89 12.5933 252.37 13.46C251.864 14.3267 251.17 15 250.29 15.48C249.424 15.9467 248.45 16.18 247.37 16.18ZM247.37 13.74C247.877 13.74 248.35 13.62 248.79 13.38C249.244 13.1267 249.604 12.7533 249.87 12.26C250.137 11.7667 250.27 11.1667 250.27 10.46C250.27 9.40667 249.99 8.6 249.43 8.04C248.884 7.46667 248.21 7.18 247.41 7.18C246.61 7.18 245.937 7.46667 245.39 8.04C244.857 8.6 244.59 9.40667 244.59 10.46C244.59 11.5133 244.85 12.3267 245.37 12.9C245.904 13.46 246.57 13.74 247.37 13.74ZM258.004 6.64C258.364 6.05333 258.831 5.59333 259.404 5.26C259.991 4.92667 260.658 4.76 261.404 4.76V7.7H260.664C259.784 7.7 259.118 7.90667 258.664 8.32C258.224 8.73333 258.004 9.45333 258.004 10.48V16H255.204V4.92H258.004V6.64ZM269.85 16L266.09 11.28V16H263.29V1.2H266.09V9.62L269.81 4.92H273.45L268.57 10.48L273.49 16H269.85Z" fill="#393939"/>
</svg>
